# xmcd
#
# Track frame offsets:
# 150
# 12531
# 25527
# 37584
# 48440
# 61325
# 72816
# 85644
# 98425
# 109843
# 131088
# 145752
#
# Disc length: 2068 seconds
#
#
# Revision: 3
# Processed by: cddbd v1.5.2PL0 Copyright (c) Steve Scherf et al.
# Submitted via: FreeRIP 2.942 
#
DISCID=8d08120c
DTITLE=אריק איינשטיין - אני שר
DYEAR=1900
DGENRE=ישראלי
TTITLE0=הלילה הזה
TTITLE1=אורה
TTITLE2=שחר אפור
TTITLE3=הבטחת שתבואי
TTITLE4=ככה נפרדים
TTITLE5=מרים
TTITLE6=אל תבכי ילדה
TTITLE7=כמה משעממם פה בשכונה
TTITLE8=ארץ הלוואי
TTITLE9=כיפה אדומה
TTITLE10=מוזר
TTITLE11=הגשם מתופף
EXTD=
EXTT0=
EXTT1=
EXTT2=
EXTT3=
EXTT4=
EXTT5=
EXTT6=
EXTT7=
EXTT8=
EXTT9=
EXTT10=
EXTT11=
PLAYORDER=
